<svg xmlns="http://www.w3.org/2000/svg" viewBox="0 0 1600 1100" fill="none" role="img" aria-label="The recovered Lorenz attractor, converged into its butterfly.">
  <defs>
    <filter id="glow" x="-20%" y="-20%" width="140%" height="140%">
      <feGaussianBlur stdDeviation="9"/>
    </filter>
  </defs>
  <g fill="#c7d2e8" fill-opacity="0.34"><circle cx="621.1" cy="496.1" r="3.4"/><circle cx="653.8" cy="568.9" r="3.4"/><circle cx="686.9" cy="576.8" r="3.4"/><circle cx="701.7" cy="586.6" r="3.4"/><circle cx="735.4" cy="595.2" r="3.4"/><circle cx="744.7" cy="611.1" r="3.4"/><circle cx="767.8" cy="643.5" r="3.4"/><circle cx="780.8" cy="658.9" r="3.4"/><circle cx="780.8" cy="673.6" r="3.4"/><circle cx="823.8" cy="684.1" r="3.4"/><circle cx="814.5" cy="709.9" r="3.4"/><circle cx="830.7" cy="709.8" r="3.4"/><circle cx="857.8" cy="698.4" r="3.4"/><circle cx="854.0" cy="750.8" r="3.4"/><circle cx="876.9" cy="745.2" r="3.4"/><circle cx="903.3" cy="756.8" r="3.4"/><circle cx="883.9" cy="752.5" r="3.4"/><circle cx="886.9" cy="775.7" r="3.4"/><circle cx="896.2" cy="778.3" r="3.4"/><circle cx="912.1" cy="763.4" r="3.4"/><circle cx="926.5" cy="793.2" r="3.4"/><circle cx="955.6" cy="750.1" r="3.4"/><circle cx="937.5" cy="770.6" r="3.4"/><circle cx="951.0" cy="769.6" r="3.4"/><circle cx="960.9" cy="750.8" r="3.4"/><circle cx="965.3" cy="779.9" r="3.4"/><circle cx="991.2" cy="761.2" r="3.4"/><circle cx="1004.3" cy="768.4" r="3.4"/><circle cx="1004.3" cy="745.8" r="3.4"/><circle cx="1014.5" cy="733.6" r="3.4"/><circle cx="1013.7" cy="707.0" r="3.4"/><circle cx="1049.1" cy="689.8" r="3.4"/><circle cx="1041.2" cy="685.7" r="3.4"/><circle cx="1047.6" cy="665.4" r="3.4"/><circle cx="1112.0" cy="624.2" r="3.4"/><circle cx="1080.6" cy="598.6" r="3.4"/><circle cx="1098.0" cy="555.6" r="3.4"/><circle cx="1118.0" cy="534.7" r="3.4"/><circle cx="1132.1" cy="513.9" r="3.4"/><circle cx="1134.7" cy="461.1" r="3.4"/><circle cx="1132.3" cy="428.0" r="3.4"/><circle cx="1135.1" cy="383.0" r="3.4"/><circle cx="1154.9" cy="345.6" r="3.4"/><circle cx="1141.9" cy="327.9" r="3.4"/><circle cx="1144.8" cy="296.4" r="3.4"/><circle cx="1132.0" cy="295.7" r="3.4"/><circle cx="1157.9" cy="265.3" r="3.4"/><circle cx="1148.5" cy="277.3" r="3.4"/><circle cx="1118.0" cy="257.6" r="3.4"/><circle cx="1118.6" cy="246.8" r="3.4"/><circle cx="1091.0" cy="260.6" r="3.4"/><circle cx="1100.4" cy="248.9" r="3.4"/><circle cx="1064.3" cy="289.4" r="3.4"/><circle cx="1051.4" cy="293.4" r="3.4"/><circle cx="1031.8" cy="317.5" r="3.4"/><circle cx="1035.3" cy="326.0" r="3.4"/><circle cx="1017.6" cy="355.8" r="3.4"/><circle cx="983.4" cy="403.6" r="3.4"/><circle cx="973.4" cy="386.3" r="3.4"/><circle cx="974.4" cy="444.1" r="3.4"/><circle cx="972.7" cy="418.0" r="3.4"/><circle cx="941.1" cy="446.6" r="3.4"/><circle cx="940.5" cy="484.2" r="3.4"/><circle cx="934.4" cy="493.0" r="3.4"/><circle cx="920.1" cy="517.1" r="3.4"/><circle cx="886.5" cy="509.5" r="3.4"/><circle cx="890.7" cy="537.2" r="3.4"/><circle cx="876.7" cy="599.0" r="3.4"/><circle cx="876.9" cy="591.6" r="3.4"/><circle cx="887.4" cy="579.1" r="3.4"/><circle cx="879.9" cy="611.5" r="3.4"/><circle cx="862.4" cy="631.7" r="3.4"/><circle cx="859.3" cy="619.2" r="3.4"/><circle cx="895.5" cy="649.0" r="3.4"/><circle cx="864.0" cy="674.5" r="3.4"/><circle cx="848.1" cy="657.6" r="3.4"/><circle cx="856.1" cy="693.9" r="3.4"/><circle cx="861.7" cy="691.1" r="3.4"/><circle cx="845.7" cy="699.7" r="3.4"/><circle cx="853.8" cy="719.5" r="3.4"/><circle cx="851.2" cy="733.9" r="3.4"/><circle cx="834.3" cy="741.1" r="3.4"/><circle cx="861.4" cy="747.4" r="3.4"/><circle cx="868.6" cy="748.9" r="3.4"/><circle cx="855.1" cy="754.8" r="3.4"/><circle cx="890.6" cy="778.4" r="3.4"/><circle cx="877.1" cy="790.4" r="3.4"/><circle cx="885.8" cy="795.8" r="3.4"/><circle cx="874.2" cy="807.9" r="3.4"/><circle cx="879.5" cy="813.9" r="3.4"/><circle cx="867.4" cy="804.0" r="3.4"/><circle cx="900.8" cy="843.6" r="3.4"/><circle cx="890.6" cy="833.6" r="3.4"/><circle cx="898.8" cy="812.4" r="3.4"/><circle cx="904.9" cy="835.3" r="3.4"/><circle cx="902.8" cy="828.8" r="3.4"/><circle cx="933.9" cy="845.9" r="3.4"/><circle cx="941.2" cy="845.6" r="3.4"/><circle cx="940.9" cy="852.0" r="3.4"/><circle cx="941.8" cy="810.1" r="3.4"/><circle cx="941.2" cy="826.8" r="3.4"/><circle cx="967.3" cy="844.4" r="3.4"/><circle cx="985.6" cy="807.1" r="3.4"/><circle cx="983.9" cy="839.6" r="3.4"/><circle cx="1012.6" cy="788.8" r="3.4"/><circle cx="1031.3" cy="783.1" r="3.4"/><circle cx="1005.0" cy="773.3" r="3.4"/><circle cx="1061.0" cy="753.7" r="3.4"/><circle cx="1061.8" cy="725.9" r="3.4"/><circle cx="1069.6" cy="704.4" r="3.4"/><circle cx="1105.8" cy="635.2" r="3.4"/><circle cx="1099.5" cy="617.7" r="3.4"/><circle cx="1104.9" cy="593.9" r="3.4"/><circle cx="1151.0" cy="543.6" r="3.4"/><circle cx="1142.5" cy="486.6" r="3.4"/><circle cx="1175.9" cy="459.6" r="3.4"/><circle cx="1177.8" cy="400.3" r="3.4"/><circle cx="1162.4" cy="370.2" r="3.4"/><circle cx="1163.0" cy="316.3" r="3.4"/><circle cx="1195.9" cy="288.7" r="3.4"/><circle cx="1168.4" cy="287.5" r="3.4"/><circle cx="1197.2" cy="241.1" r="3.4"/><circle cx="1185.3" cy="217.9" r="3.4"/><circle cx="1178.1" cy="227.1" r="3.4"/><circle cx="1135.1" cy="214.5" r="3.4"/><circle cx="1124.3" cy="224.2" r="3.4"/><circle cx="1090.9" cy="235.0" r="3.4"/><circle cx="1092.5" cy="232.2" r="3.4"/><circle cx="1068.6" cy="281.3" r="3.4"/><circle cx="1047.0" cy="280.0" r="3.4"/><circle cx="1041.7" cy="326.7" r="3.4"/><circle cx="1006.5" cy="344.0" r="3.4"/><circle cx="1008.6" cy="347.2" r="3.4"/><circle cx="976.7" cy="376.4" r="3.4"/><circle cx="961.6" cy="406.4" r="3.4"/><circle cx="950.7" cy="413.1" r="3.4"/><circle cx="899.8" cy="436.6" r="3.4"/><circle cx="901.9" cy="442.3" r="3.4"/><circle cx="892.4" cy="493.9" r="3.4"/><circle cx="872.1" cy="519.2" r="3.4"/><circle cx="892.9" cy="522.3" r="3.4"/><circle cx="857.2" cy="563.0" r="3.4"/><circle cx="851.0" cy="538.8" r="3.4"/><circle cx="865.6" cy="560.5" r="3.4"/><circle cx="854.3" cy="577.1" r="3.4"/><circle cx="856.2" cy="623.1" r="3.4"/><circle cx="822.8" cy="617.4" r="3.4"/><circle cx="828.3" cy="639.5" r="3.4"/><circle cx="847.3" cy="639.5" r="3.4"/><circle cx="821.6" cy="650.3" r="3.4"/><circle cx="821.5" cy="677.1" r="3.4"/><circle cx="827.2" cy="696.2" r="3.4"/><circle cx="809.8" cy="694.0" r="3.4"/><circle cx="803.0" cy="711.1" r="3.4"/><circle cx="816.3" cy="699.7" r="3.4"/><circle cx="819.5" cy="730.7" r="3.4"/><circle cx="824.1" cy="740.5" r="3.4"/><circle cx="811.1" cy="753.0" r="3.4"/><circle cx="813.8" cy="750.8" r="3.4"/><circle cx="802.1" cy="794.3" r="3.4"/><circle cx="799.2" cy="800.3" r="3.4"/><circle cx="810.6" cy="783.8" r="3.4"/><circle cx="799.3" cy="810.1" r="3.4"/><circle cx="802.8" cy="842.6" r="3.4"/><circle cx="808.8" cy="833.7" r="3.4"/><circle cx="799.4" cy="865.8" r="3.4"/><circle cx="786.1" cy="861.2" r="3.4"/><circle cx="788.1" cy="851.2" r="3.4"/><circle cx="798.7" cy="898.4" r="3.4"/><circle cx="780.1" cy="867.1" r="3.4"/><circle cx="806.9" cy="884.6" r="3.4"/><circle cx="781.1" cy="884.3" r="3.4"/><circle cx="779.1" cy="891.6" r="3.4"/><circle cx="766.9" cy="904.8" r="3.4"/><circle cx="811.5" cy="914.2" r="3.4"/><circle cx="779.9" cy="926.7" r="3.4"/><circle cx="754.4" cy="916.3" r="3.4"/><circle cx="762.5" cy="908.6" r="3.4"/><circle cx="769.2" cy="914.1" r="3.4"/><circle cx="753.6" cy="904.3" r="3.4"/><circle cx="770.8" cy="943.8" r="3.4"/><circle cx="772.9" cy="944.2" r="3.4"/><circle cx="744.9" cy="938.2" r="3.4"/><circle cx="736.3" cy="940.6" r="3.4"/><circle cx="724.0" cy="933.0" r="3.4"/><circle cx="741.8" cy="938.8" r="3.4"/><circle cx="695.9" cy="970.0" r="3.4"/><circle cx="719.4" cy="929.2" r="3.4"/><circle cx="690.5" cy="936.9" r="3.4"/><circle cx="689.1" cy="936.8" r="3.4"/><circle cx="668.7" cy="918.3" r="3.4"/><circle cx="655.6" cy="914.2" r="3.4"/><circle cx="649.2" cy="878.6" r="3.4"/><circle cx="612.7" cy="867.2" r="3.4"/><circle cx="619.0" cy="846.8" r="3.4"/><circle cx="593.3" cy="825.6" r="3.4"/><circle cx="565.9" cy="801.2" r="3.4"/><circle cx="552.8" cy="772.2" r="3.4"/><circle cx="550.6" cy="725.7" r="3.4"/><circle cx="516.1" cy="696.9" r="3.4"/><circle cx="476.6" cy="619.4" r="3.4"/><circle cx="470.0" cy="551.6" r="3.4"/><circle cx="454.4" cy="499.5" r="3.4"/><circle cx="459.0" cy="458.5" r="3.4"/><circle cx="415.2" cy="372.0" r="3.4"/><circle cx="419.1" cy="347.7" r="3.4"/><circle cx="402.8" cy="272.2" r="3.4"/><circle cx="405.1" cy="229.0" r="3.4"/><circle cx="405.5" cy="191.7" r="3.4"/><circle cx="427.4" cy="163.9" r="3.4"/><circle cx="422.6" cy="171.5" r="3.4"/><circle cx="431.6" cy="130.0" r="3.4"/><circle cx="462.2" cy="165.1" r="3.4"/><circle cx="479.9" cy="150.4" r="3.4"/><circle cx="514.5" cy="176.6" r="3.4"/><circle cx="521.4" cy="186.4" r="3.4"/><circle cx="541.4" cy="231.5" r="3.4"/><circle cx="588.8" cy="236.7" r="3.4"/><circle cx="623.5" cy="281.0" r="3.4"/><circle cx="628.5" cy="302.6" r="3.4"/><circle cx="662.5" cy="346.8" r="3.4"/><circle cx="698.7" cy="367.5" r="3.4"/><circle cx="704.8" cy="399.1" r="3.4"/><circle cx="751.8" cy="408.0" r="3.4"/><circle cx="744.5" cy="431.2" r="3.4"/><circle cx="728.0" cy="428.5" r="3.4"/><circle cx="776.3" cy="452.9" r="3.4"/><circle cx="778.8" cy="504.3" r="3.4"/><circle cx="807.6" cy="514.9" r="3.4"/><circle cx="804.5" cy="531.7" r="3.4"/><circle cx="811.7" cy="588.7" r="3.4"/><circle cx="834.0" cy="563.7" r="3.4"/><circle cx="838.7" cy="568.5" r="3.4"/><circle cx="849.7" cy="568.7" r="3.4"/><circle cx="832.2" cy="614.7" r="3.4"/><circle cx="849.7" cy="618.7" r="3.4"/><circle cx="886.5" cy="621.0" r="3.4"/><circle cx="905.7" cy="644.5" r="3.4"/><circle cx="882.9" cy="675.9" r="3.4"/><circle cx="880.7" cy="660.1" r="3.4"/><circle cx="877.6" cy="691.5" r="3.4"/><circle cx="889.8" cy="685.7" r="3.4"/><circle cx="866.8" cy="688.6" r="3.4"/><circle cx="922.3" cy="712.4" r="3.4"/><circle cx="898.6" cy="723.7" r="3.4"/><circle cx="926.7" cy="737.8" r="3.4"/><circle cx="897.7" cy="731.9" r="3.4"/><circle cx="932.3" cy="723.4" r="3.4"/><circle cx="922.5" cy="731.9" r="3.4"/><circle cx="908.9" cy="743.9" r="3.4"/><circle cx="932.4" cy="753.4" r="3.4"/><circle cx="946.2" cy="760.9" r="3.4"/><circle cx="961.9" cy="751.3" r="3.4"/><circle cx="949.7" cy="727.8" r="3.4"/><circle cx="961.6" cy="747.5" r="3.4"/><circle cx="964.0" cy="751.2" r="3.4"/><circle cx="998.4" cy="756.0" r="3.4"/><circle cx="995.9" cy="742.8" r="3.4"/><circle cx="985.5" cy="745.3" r="3.4"/><circle cx="1010.9" cy="708.6" r="3.4"/><circle cx="1034.4" cy="694.9" r="3.4"/><circle cx="1057.5" cy="694.4" r="3.4"/><circle cx="1068.8" cy="697.7" r="3.4"/><circle cx="1061.1" cy="662.0" r="3.4"/><circle cx="1083.2" cy="647.7" r="3.4"/><circle cx="1097.5" cy="602.4" r="3.4"/><circle cx="1092.5" cy="562.4" r="3.4"/><circle cx="1098.2" cy="546.1" r="3.4"/><circle cx="1112.0" cy="504.0" r="3.4"/><circle cx="1132.0" cy="487.7" r="3.4"/><circle cx="1144.6" cy="457.7" r="3.4"/><circle cx="1142.5" cy="416.1" r="3.4"/><circle cx="1131.4" cy="381.5" r="3.4"/><circle cx="1137.4" cy="389.1" r="3.4"/><circle cx="1162.9" cy="344.2" r="3.4"/><circle cx="1135.8" cy="341.8" r="3.4"/><circle cx="1153.1" cy="299.6" r="3.4"/><circle cx="1136.2" cy="309.2" r="3.4"/><circle cx="1137.3" cy="284.6" r="3.4"/><circle cx="1116.4" cy="298.9" r="3.4"/><circle cx="1132.1" cy="269.5" r="3.4"/><circle cx="1099.3" cy="299.7" r="3.4"/><circle cx="1118.2" cy="301.9" r="3.4"/><circle cx="1076.3" cy="308.6" r="3.4"/><circle cx="1054.0" cy="312.1" r="3.4"/><circle cx="1043.9" cy="353.2" r="3.4"/><circle cx="1017.1" cy="341.5" r="3.4"/><circle cx="1002.3" cy="366.2" r="3.4"/><circle cx="980.9" cy="400.3" r="3.4"/><circle cx="967.6" cy="396.7" r="3.4"/><circle cx="977.0" cy="438.0" r="3.4"/><circle cx="935.2" cy="459.6" r="3.4"/><circle cx="936.4" cy="467.7" r="3.4"/><circle cx="921.4" cy="471.9" r="3.4"/><circle cx="908.0" cy="492.2" r="3.4"/><circle cx="908.0" cy="522.4" r="3.4"/><circle cx="935.4" cy="568.3" r="3.4"/><circle cx="904.4" cy="535.6" r="3.4"/><circle cx="886.0" cy="539.6" r="3.4"/><circle cx="884.9" cy="593.5" r="3.4"/></g>
  <path d="M619.7 509.0 L641.2 529.0 L664.2 549.2 L687.2 568.5 L708.9 586.4 L728.5 602.7 L746.0 617.6 L761.4 631.3 L775.2 643.9 L787.7 655.8 L799.1 666.9 L809.7 677.5 L819.5 687.6 L828.8 697.1 L837.4 706.1 L845.6 714.6 L853.3 722.6 L860.7 730.1 L867.7 737.0 L874.5 743.4 L881.0 749.2 L887.2 754.5 L893.3 759.3 L899.1 763.6 L904.7 767.4 L910.2 770.7 L915.4 773.5 L920.4 775.8 L925.3 777.5 L930.1 778.8 L935.0 779.5 L940.1 779.6 L945.5 779.1 L951.5 777.9 L958.2 775.9 L965.6 773.1 L973.9 769.3 L982.8 764.4 L992.2 758.3 L1002.1 750.9 L1012.1 742.2 L1022.1 732.0 L1032.1 720.3 L1042.0 707.1 L1051.8 692.4 L1061.5 676.2 L1071.0 658.8 L1080.4 640.2 L1089.6 620.6 L1098.3 600.2 L1106.6 579.0 L1114.5 557.1 L1122.1 534.6 L1129.7 511.5 L1137.4 487.8 L1145.0 463.6 L1151.7 439.1 L1156.9 414.6 L1160.4 390.7 L1162.4 367.8 L1163.1 346.6 L1162.7 327.4 L1161.4 310.7 L1159.0 296.6 L1155.7 285.2 L1151.1 276.4 L1145.3 270.1 L1138.3 266.4 L1129.9 265.0 L1120.4 266.0 L1110.0 269.3 L1098.8 274.7 L1087.2 282.2 L1075.3 291.7 L1063.5 302.8 L1051.7 315.2 L1039.9 328.6 L1028.1 342.5 L1016.4 356.5 L1004.7 370.4 L993.4 384.0 L982.6 397.3 L972.3 410.5 L962.7 423.7 L953.6 436.9 L945.0 450.3 L936.8 463.8 L929.0 477.3 L921.7 490.6 L914.8 503.6 L908.6 516.2 L902.9 528.3 L897.7 539.9 L893.0 551.2 L888.7 562.1 L884.8 572.9 L881.1 583.5 L877.7 594.1 L874.5 604.7 L871.7 615.2 L869.3 625.6 L867.3 635.8 L865.9 645.7 L864.9 655.3 L864.2 664.4 L863.8 673.2 L863.7 681.7 L863.6 690.1 L863.6 698.5 L863.7 706.9 L863.9 715.4 L864.1 723.9 L864.5 732.3 L864.9 740.5 L865.4 748.4 L866.1 755.9 L867.1 763.0 L868.2 769.8 L869.5 776.2 L871.2 782.4 L873.0 788.3 L875.1 794.0 L877.4 799.4 L879.9 804.6 L882.6 809.4 L885.4 813.9 L888.3 818.1 L891.4 821.9 L894.6 825.4 L897.9 828.7 L901.5 831.8 L905.2 834.7 L909.2 837.6 L913.4 840.1 L918.0 842.4 L923.0 844.1 L928.4 845.2 L934.2 845.4 L940.5 844.7 L947.2 842.8 L954.4 839.8 L961.8 835.6 L969.5 830.2 L977.3 823.6 L985.4 815.8 L993.8 807.0 L1002.7 797.0 L1012.3 785.8 L1022.7 773.2 L1034.1 759.0 L1045.9 743.0 L1057.6 724.8 L1068.9 704.4 L1079.5 682.0 L1090.0 657.7 L1100.5 631.8 L1111.3 604.5 L1122.0 576.1 L1132.0 546.7 L1141.2 516.4 L1149.6 485.5 L1157.4 454.4 L1164.9 423.2 L1171.5 392.6 L1176.8 362.9 L1180.5 334.6 L1182.5 308.4 L1183.0 284.7 L1181.9 264.1 L1179.4 246.9 L1175.3 233.4 L1169.8 223.8 L1162.6 217.9 L1153.9 215.7 L1143.6 216.8 L1132.1 221.1 L1119.3 228.1 L1105.7 237.6 L1091.3 249.2 L1076.6 262.4 L1061.7 276.9 L1046.8 292.3 L1032.1 308.3 L1017.7 324.5 L1003.7 340.7 L990.1 356.8 L977.1 372.6 L964.6 388.1 L952.6 403.3 L941.2 418.2 L930.4 432.9 L920.1 447.3 L910.4 461.4 L901.2 475.4 L892.7 489.1 L884.7 502.6 L877.2 515.8 L870.3 528.7 L863.9 541.4 L858.0 553.7 L852.7 565.6 L847.8 577.2 L843.3 588.4 L839.2 599.2 L835.5 609.7 L832.2 619.9 L829.1 629.8 L826.4 639.5 L823.9 649.0 L821.7 658.3 L819.6 667.4 L817.8 676.5 L816.2 685.5 L814.6 694.5 L813.3 703.4 L812.0 712.2 L810.9 721.0 L809.8 729.8 L808.8 738.5 L807.9 747.2 L807.1 755.7 L806.3 764.2 L805.5 772.5 L804.7 780.6 L804.0 788.6 L803.3 796.3 L802.5 803.8 L801.8 811.1 L801.0 818.1 L800.2 824.9 L799.4 831.4 L798.5 837.6 L797.5 843.6 L796.4 849.3 L795.3 854.8 L794.0 860.1 L792.7 865.3 L791.2 870.3 L789.6 875.2 L787.8 880.0 L785.9 884.8 L783.9 889.5 L781.8 894.3 L779.5 899.0 L777.1 903.8 L774.6 908.5 L772.0 913.1 L769.3 917.7 L766.4 922.2 L763.4 926.4 L760.2 930.4 L756.9 934.0 L753.2 937.2 L749.4 940.0 L745.2 942.3 L740.7 944.0 L735.8 945.1 L730.6 945.7 L725.0 945.7 L719.1 945.1 L712.8 943.9 L706.3 942.1 L699.5 939.6 L692.5 936.5 L685.3 932.7 L677.8 928.1 L670.0 922.6 L661.8 915.9 L652.8 907.9 L643.0 898.3 L632.0 886.8 L619.9 873.1 L606.9 856.7 L593.3 837.6 L579.7 815.4 L566.1 790.2 L552.7 762.1 L539.1 731.7 L525.2 699.3 L510.9 665.4 L496.7 630.3 L483.1 594.1 L470.6 556.6 L459.1 517.7 L448.5 477.0 L438.6 434.7 L429.7 391.4 L422.6 348.3 L417.5 306.8 L414.5 268.5 L413.3 234.9 L413.8 206.9 L416.0 185.0 L420.2 169.0 L426.9 158.6 L436.2 153.2 L448.1 152.2 L462.2 154.9 L478.1 160.8 L495.4 169.3 L513.8 180.1 L533.1 192.8 L552.9 207.1 L572.9 222.6 L592.9 239.2 L612.5 256.7 L631.4 274.8 L649.5 293.4 L666.6 312.3 L682.8 331.3 L698.0 350.3 L712.4 369.3 L725.8 387.9 L738.5 406.3 L750.6 424.2 L761.9 441.6 L772.7 458.5 L782.9 474.8 L792.6 490.5 L801.8 505.6 L810.5 520.0 L818.7 533.8 L826.4 546.9 L833.7 559.5 L840.4 571.4 L846.7 582.8 L852.5 593.6 L857.9 604.0 L862.9 613.8 L867.5 623.1 L871.8 632.0 L875.7 640.5 L879.3 648.6 L882.7 656.4 L885.9 663.8 L888.9 670.8 L891.7 677.6 L894.3 684.0 L896.9 690.2 L899.5 696.1 L901.9 701.7 L904.4 707.1 L906.9 712.2 L909.5 717.0 L912.1 721.6 L914.9 725.9 L917.8 730.0 L920.9 733.7 L924.2 737.2 L927.8 740.3 L931.6 743.0 L935.8 745.3 L940.2 747.2 L945.0 748.6 L950.1 749.4 L955.6 749.7 L961.4 749.2 L967.4 747.9 L973.8 745.8 L980.4 742.8 L987.3 738.7 L994.4 733.5 L1001.8 727.1 L1009.3 719.4 L1017.1 710.5 L1025.1 700.2 L1033.4 688.5 L1042.0 675.5 L1050.8 661.3 L1059.8 645.8 L1069.1 629.1 L1078.4 611.4 L1087.7 592.6 L1096.8 572.9 L1105.5 552.4 L1113.6 531.1 L1120.9 509.2 L1127.4 487.0 L1132.8 464.7 L1137.2 442.6 L1140.7 421.0 L1143.2 400.5 L1144.9 381.3 L1145.8 363.8 L1145.8 348.1 L1144.8 334.6 L1142.7 323.2 L1139.3 314.0 L1134.6 306.9 L1129.0 301.9 L1122.8 298.8 L1116.1 297.5 L1108.9 297.9 L1100.8 299.9 L1092.1 303.4 L1083.0 308.3 L1073.6 314.5 L1063.7 321.9 L1053.3 330.5 L1042.8 340.1 L1032.6 350.6 L1022.8 361.9 L1013.1 373.9 L1003.4 386.4 L993.8 399.4 L984.9 412.6 L976.7 426.0 L969.2 439.3 L962.2 452.6 L955.4 465.6 L948.6 478.2 L941.9 490.4 L935.2 502.2 L928.8 513.4 L922.6 524.0 L916.8 534.0 L911.5 543.4 L906.6 552.2 L902.2 560.4 L898.3 568.1" stroke="#9B99F0" stroke-width="9" stroke-linejoin="round" stroke-linecap="round" stroke-opacity="0.55" filter="url(#glow)"/>
  <path d="M619.7 509.0 L641.2 529.0 L664.2 549.2 L687.2 568.5 L708.9 586.4 L728.5 602.7 L746.0 617.6 L761.4 631.3 L775.2 643.9 L787.7 655.8 L799.1 666.9 L809.7 677.5 L819.5 687.6 L828.8 697.1 L837.4 706.1 L845.6 714.6 L853.3 722.6 L860.7 730.1 L867.7 737.0 L874.5 743.4 L881.0 749.2 L887.2 754.5 L893.3 759.3 L899.1 763.6 L904.7 767.4 L910.2 770.7 L915.4 773.5 L920.4 775.8 L925.3 777.5 L930.1 778.8 L935.0 779.5 L940.1 779.6 L945.5 779.1 L951.5 777.9 L958.2 775.9 L965.6 773.1 L973.9 769.3 L982.8 764.4 L992.2 758.3 L1002.1 750.9 L1012.1 742.2 L1022.1 732.0 L1032.1 720.3 L1042.0 707.1 L1051.8 692.4 L1061.5 676.2 L1071.0 658.8 L1080.4 640.2 L1089.6 620.6 L1098.3 600.2 L1106.6 579.0 L1114.5 557.1 L1122.1 534.6 L1129.7 511.5 L1137.4 487.8 L1145.0 463.6 L1151.7 439.1 L1156.9 414.6 L1160.4 390.7 L1162.4 367.8 L1163.1 346.6 L1162.7 327.4 L1161.4 310.7 L1159.0 296.6 L1155.7 285.2 L1151.1 276.4 L1145.3 270.1 L1138.3 266.4 L1129.9 265.0 L1120.4 266.0 L1110.0 269.3 L1098.8 274.7 L1087.2 282.2 L1075.3 291.7 L1063.5 302.8 L1051.7 315.2 L1039.9 328.6 L1028.1 342.5 L1016.4 356.5 L1004.7 370.4 L993.4 384.0 L982.6 397.3 L972.3 410.5 L962.7 423.7 L953.6 436.9 L945.0 450.3 L936.8 463.8 L929.0 477.3 L921.7 490.6 L914.8 503.6 L908.6 516.2 L902.9 528.3 L897.7 539.9 L893.0 551.2 L888.7 562.1 L884.8 572.9 L881.1 583.5 L877.7 594.1 L874.5 604.7 L871.7 615.2 L869.3 625.6 L867.3 635.8 L865.9 645.7 L864.9 655.3 L864.2 664.4 L863.8 673.2 L863.7 681.7 L863.6 690.1 L863.6 698.5 L863.7 706.9 L863.9 715.4 L864.1 723.9 L864.5 732.3 L864.9 740.5 L865.4 748.4 L866.1 755.9 L867.1 763.0 L868.2 769.8 L869.5 776.2 L871.2 782.4 L873.0 788.3 L875.1 794.0 L877.4 799.4 L879.9 804.6 L882.6 809.4 L885.4 813.9 L888.3 818.1 L891.4 821.9 L894.6 825.4 L897.9 828.7 L901.5 831.8 L905.2 834.7 L909.2 837.6 L913.4 840.1 L918.0 842.4 L923.0 844.1 L928.4 845.2 L934.2 845.4 L940.5 844.7 L947.2 842.8 L954.4 839.8 L961.8 835.6 L969.5 830.2 L977.3 823.6 L985.4 815.8 L993.8 807.0 L1002.7 797.0 L1012.3 785.8 L1022.7 773.2 L1034.1 759.0 L1045.9 743.0 L1057.6 724.8 L1068.9 704.4 L1079.5 682.0 L1090.0 657.7 L1100.5 631.8 L1111.3 604.5 L1122.0 576.1 L1132.0 546.7 L1141.2 516.4 L1149.6 485.5 L1157.4 454.4 L1164.9 423.2 L1171.5 392.6 L1176.8 362.9 L1180.5 334.6 L1182.5 308.4 L1183.0 284.7 L1181.9 264.1 L1179.4 246.9 L1175.3 233.4 L1169.8 223.8 L1162.6 217.9 L1153.9 215.7 L1143.6 216.8 L1132.1 221.1 L1119.3 228.1 L1105.7 237.6 L1091.3 249.2 L1076.6 262.4 L1061.7 276.9 L1046.8 292.3 L1032.1 308.3 L1017.7 324.5 L1003.7 340.7 L990.1 356.8 L977.1 372.6 L964.6 388.1 L952.6 403.3 L941.2 418.2 L930.4 432.9 L920.1 447.3 L910.4 461.4 L901.2 475.4 L892.7 489.1 L884.7 502.6 L877.2 515.8 L870.3 528.7 L863.9 541.4 L858.0 553.7 L852.7 565.6 L847.8 577.2 L843.3 588.4 L839.2 599.2 L835.5 609.7 L832.2 619.9 L829.1 629.8 L826.4 639.5 L823.9 649.0 L821.7 658.3 L819.6 667.4 L817.8 676.5 L816.2 685.5 L814.6 694.5 L813.3 703.4 L812.0 712.2 L810.9 721.0 L809.8 729.8 L808.8 738.5 L807.9 747.2 L807.1 755.7 L806.3 764.2 L805.5 772.5 L804.7 780.6 L804.0 788.6 L803.3 796.3 L802.5 803.8 L801.8 811.1 L801.0 818.1 L800.2 824.9 L799.4 831.4 L798.5 837.6 L797.5 843.6 L796.4 849.3 L795.3 854.8 L794.0 860.1 L792.7 865.3 L791.2 870.3 L789.6 875.2 L787.8 880.0 L785.9 884.8 L783.9 889.5 L781.8 894.3 L779.5 899.0 L777.1 903.8 L774.6 908.5 L772.0 913.1 L769.3 917.7 L766.4 922.2 L763.4 926.4 L760.2 930.4 L756.9 934.0 L753.2 937.2 L749.4 940.0 L745.2 942.3 L740.7 944.0 L735.8 945.1 L730.6 945.7 L725.0 945.7 L719.1 945.1 L712.8 943.9 L706.3 942.1 L699.5 939.6 L692.5 936.5 L685.3 932.7 L677.8 928.1 L670.0 922.6 L661.8 915.9 L652.8 907.9 L643.0 898.3 L632.0 886.8 L619.9 873.1 L606.9 856.7 L593.3 837.6 L579.7 815.4 L566.1 790.2 L552.7 762.1 L539.1 731.7 L525.2 699.3 L510.9 665.4 L496.7 630.3 L483.1 594.1 L470.6 556.6 L459.1 517.7 L448.5 477.0 L438.6 434.7 L429.7 391.4 L422.6 348.3 L417.5 306.8 L414.5 268.5 L413.3 234.9 L413.8 206.9 L416.0 185.0 L420.2 169.0 L426.9 158.6 L436.2 153.2 L448.1 152.2 L462.2 154.9 L478.1 160.8 L495.4 169.3 L513.8 180.1 L533.1 192.8 L552.9 207.1 L572.9 222.6 L592.9 239.2 L612.5 256.7 L631.4 274.8 L649.5 293.4 L666.6 312.3 L682.8 331.3 L698.0 350.3 L712.4 369.3 L725.8 387.9 L738.5 406.3 L750.6 424.2 L761.9 441.6 L772.7 458.5 L782.9 474.8 L792.6 490.5 L801.8 505.6 L810.5 520.0 L818.7 533.8 L826.4 546.9 L833.7 559.5 L840.4 571.4 L846.7 582.8 L852.5 593.6 L857.9 604.0 L862.9 613.8 L867.5 623.1 L871.8 632.0 L875.7 640.5 L879.3 648.6 L882.7 656.4 L885.9 663.8 L888.9 670.8 L891.7 677.6 L894.3 684.0 L896.9 690.2 L899.5 696.1 L901.9 701.7 L904.4 707.1 L906.9 712.2 L909.5 717.0 L912.1 721.6 L914.9 725.9 L917.8 730.0 L920.9 733.7 L924.2 737.2 L927.8 740.3 L931.6 743.0 L935.8 745.3 L940.2 747.2 L945.0 748.6 L950.1 749.4 L955.6 749.7 L961.4 749.2 L967.4 747.9 L973.8 745.8 L980.4 742.8 L987.3 738.7 L994.4 733.5 L1001.8 727.1 L1009.3 719.4 L1017.1 710.5 L1025.1 700.2 L1033.4 688.5 L1042.0 675.5 L1050.8 661.3 L1059.8 645.8 L1069.1 629.1 L1078.4 611.4 L1087.7 592.6 L1096.8 572.9 L1105.5 552.4 L1113.6 531.1 L1120.9 509.2 L1127.4 487.0 L1132.8 464.7 L1137.2 442.6 L1140.7 421.0 L1143.2 400.5 L1144.9 381.3 L1145.8 363.8 L1145.8 348.1 L1144.8 334.6 L1142.7 323.2 L1139.3 314.0 L1134.6 306.9 L1129.0 301.9 L1122.8 298.8 L1116.1 297.5 L1108.9 297.9 L1100.8 299.9 L1092.1 303.4 L1083.0 308.3 L1073.6 314.5 L1063.7 321.9 L1053.3 330.5 L1042.8 340.1 L1032.6 350.6 L1022.8 361.9 L1013.1 373.9 L1003.4 386.4 L993.8 399.4 L984.9 412.6 L976.7 426.0 L969.2 439.3 L962.2 452.6 L955.4 465.6 L948.6 478.2 L941.9 490.4 L935.2 502.2 L928.8 513.4 L922.6 524.0 L916.8 534.0 L911.5 543.4 L906.6 552.2 L902.2 560.4 L898.3 568.1" stroke="#9B99F0" stroke-width="3.2" stroke-linejoin="round" stroke-linecap="round"/>
</svg>
